<svg id="Agrupar_132" data-name="Agrupar 132" xmlns="http://www.w3.org/2000/svg" width="21.247" height="31.169" viewBox="0 0 21.247 31.169">
  <g id="Agrupar_130" data-name="Agrupar 130" transform="translate(0 0)">
    <path id="Caminho_419" data-name="Caminho 419" d="M273.806,4.081a.362.362,0,0,1-.1.267L269.989,8.06a.362.362,0,0,1-.267.1.38.38,0,0,1-.371-.371V5.566h-10.68a.38.38,0,0,1-.371-.371V2.97a.38.38,0,0,1,.371-.371h10.682V.371A.358.358,0,0,1,269.725,0,.432.432,0,0,1,270,.116l3.7,3.7A.36.36,0,0,1,273.806,4.081Z" transform="translate(-252.559 0)"/>
    <path id="Caminho_420" data-name="Caminho 420" d="M0,1038.983a.362.362,0,0,1,.1-.267L3.816,1035a.362.362,0,0,1,.267-.1.38.38,0,0,1,.371.371v2.227H15.137a.38.38,0,0,1,.371.371v2.227a.38.38,0,0,1-.371.371H4.452v2.227a.357.357,0,0,1-.371.371.431.431,0,0,1-.278-.116l-3.7-3.7A.362.362,0,0,1,0,1038.983Z" transform="translate(0 -1011.897)"/>
  </g>
  <g id="Agrupar_131" data-name="Agrupar 131" transform="translate(5.741 6.999)">
    <path id="Caminho_421" data-name="Caminho 421" d="M262.463,332.073v-2.081A4.593,4.593,0,0,1,258.3,326l2.412-.585a2.5,2.5,0,0,0,2.723,2.354c1.265,0,2-.6,2-1.458,0-.662-.487-1.167-1.458-1.38l-1.789-.389c-2.1-.467-3.4-1.789-3.4-3.656a4.059,4.059,0,0,1,3.676-3.91V314.9h1.985v2.136a4.128,4.128,0,0,1,3.481,3.267l-2.392.68a2.1,2.1,0,0,0-2.218-1.809c-1.245,0-1.925.72-1.925,1.518,0,.6.429,1.109,1.343,1.3l1.769.409c2.452.545,3.559,2,3.559,3.754a3.932,3.932,0,0,1-3.619,3.812v2.1h-1.983Z" transform="translate(-258.3 -314.9)"/>
  </g>
</svg>
