<svg xmlns="http://www.w3.org/2000/svg" width="25.493" height="24.332" viewBox="0 0 25.493 24.332">
  <g id="ico" transform="translate(0)">
    <path id="Forma_1" data-name="Forma 1" d="M9.407,24.332a.523.523,0,0,1-.526-.519V21.9a.523.523,0,0,1,.526-.519H22.5V2.952H9.407a.522.522,0,0,1-.526-.519V.519A.523.523,0,0,1,9.407,0h15.56a.523.523,0,0,1,.526.519V23.813a.523.523,0,0,1-.526.519Zm-2.173-4.8-7.08-7a.516.516,0,0,1,0-.735l7.079-7a.546.546,0,0,1,.744,0l1.68,1.659a.517.517,0,0,1,0,.735l-3.2,3.161H20.3a.524.524,0,0,1,.527.519v2.577a.524.524,0,0,1-.527.519H6.459l3.2,3.161a.514.514,0,0,1,0,.734L7.977,19.53a.527.527,0,0,1-.744,0Z" transform="translate(0)" fill="#fff"/>
  </g>
</svg>
