<svg id="Agrupar_129" data-name="Agrupar 129" xmlns="http://www.w3.org/2000/svg" width="21.838" height="25.499" viewBox="0 0 21.838 25.499">
  <path id="Caminho_411" data-name="Caminho 411" d="M6.185,13.115A5.464,5.464,0,0,1,5.554,11.6C3.03,12.484.5,14,0,15.513v1.01A14.057,14.057,0,0,1,6.185,13.115Z" transform="translate(0 3.043)"/>
  <path id="Caminho_412" data-name="Caminho 412" d="M18.485,16.523v-1.01c-.5-1.515-3.03-3.03-5.554-3.913a7.722,7.722,0,0,1-.631,1.515A14.057,14.057,0,0,1,18.485,16.523Z" transform="translate(3.227 3.043)"/>
  <path id="Caminho_413" data-name="Caminho 413" d="M9.544,0A4.54,4.54,0,0,0,5,4.166a5.351,5.351,0,0,1,4.544-2.4,5.671,5.671,0,0,1,4.544,2.4A4.54,4.54,0,0,0,9.544,0Z" transform="translate(1.312)"/>
  <path id="Caminho_414" data-name="Caminho 414" d="M9.544,3.867a5.671,5.671,0,0,1,4.544,2.4A4.64,4.64,0,0,0,9.544,2.1,4.54,4.54,0,0,0,5,6.266,5.671,5.671,0,0,1,9.544,3.867Z" transform="translate(1.312 0.551)"/>
  <path id="Caminho_415" data-name="Caminho 415" d="M18.936,17.566c-.126-.126-.126-.379-.252-.5s-.252-.379-.379-.5c-1.262-1.389-3.787-2.525-6.059-3.156A4.871,4.871,0,0,1,10.1,14.789a17.166,17.166,0,0,1,6.059,1.767,3.164,3.164,0,0,1,.884.5,2.641,2.641,0,0,1,.757.5A13.415,13.415,0,0,1,19.189,18.7v-1.01C19.063,17.692,18.936,17.692,18.936,17.566Z" transform="translate(2.65 3.515)"/>
  <path id="Caminho_416" data-name="Caminho 416" d="M6.817,13.5A12.644,12.644,0,0,0,.757,16.656a1.743,1.743,0,0,0-.379.5.656.656,0,0,0-.252.5A.124.124,0,0,1,0,17.792V18.8a13.415,13.415,0,0,1,1.389-1.136c.252-.126.5-.379.757-.5a5.488,5.488,0,0,1,.884-.5,17.166,17.166,0,0,1,6.059-1.767A7.762,7.762,0,0,1,6.817,13.5Z" transform="translate(0 3.542)"/>
  <path id="Caminho_417" data-name="Caminho 417" d="M21.586,19.771c-.126-.126-.126-.379-.252-.5s-.252-.379-.379-.5a9.1,9.1,0,0,0-2.4-1.767,7.5,7.5,0,0,0-1.01-.5c-.379-.126-.757-.379-1.136-.5a13,13,0,0,0-4.039-.884H9.215a13,13,0,0,0-4.039.884,4.484,4.484,0,0,0-1.136.5,3.78,3.78,0,0,0-1.01.5A12.009,12.009,0,0,0,.757,18.887a1.743,1.743,0,0,0-.379.5.656.656,0,0,0-.252.5A.124.124,0,0,1,0,20.023v1.515H21.712V20.023C21.712,19.9,21.586,19.9,21.586,19.771Z" transform="translate(0 3.961)"/>
  <path id="Caminho_418" data-name="Caminho 418" d="M14.241,8.744a2.779,2.779,0,0,0-.126-1.01A4.625,4.625,0,0,0,9.571,4.2,4.625,4.625,0,0,0,5.026,7.735,2.779,2.779,0,0,0,4.9,8.744v4.039c0,.126.126.252.126.5A4.266,4.266,0,0,0,5.784,14.8l.379.379a1.743,1.743,0,0,0,.5.379,4.5,4.5,0,0,0,2.9,1.01,4.765,4.765,0,0,0,2.9-1.01c.126-.126.379-.252.5-.379l.379-.379a4.266,4.266,0,0,0,.757-1.515c0-.126.126-.252.126-.5V8.744Z" transform="translate(1.285 1.102)"/>
</svg>
