<svg xmlns="http://www.w3.org/2000/svg" width="24.788" height="26.055" viewBox="0 0 24.788 26.055">
  <path id="Caminho_427" data-name="Caminho 427" d="M24.253,14.883l-2.567-.01c.079-.161.155-.325.226-.49A10.339,10.339,0,0,0,16.472.826,10.325,10.325,0,0,0,2.084,10.281a10.237,10.237,0,0,0,.8,4.023c.071.167.143.331.222.492l-2.567-.01a.534.534,0,1,0,0,1.069l9.778.04-.016,3.9-3.121-.012a.534.534,0,0,0-.522.518.508.508,0,0,0,.145.375L11.977,25.9a.552.552,0,0,0,.748,0l5.209-5.166a.607.607,0,0,0,.163-.389.5.5,0,0,0-.518-.522l-3.121-.012.016-3.9,9.778.04a.535.535,0,1,0,0-1.071Zm-2.668-4.362c0,.018,0,.036,0,.052,0,.036,0,.073,0,.107s0,.042,0,.063,0,.065,0,.1,0,.044,0,.067L21.563,11l-.006.069c0,.03-.006.06-.008.091l-.006.069c0,.03-.006.063-.01.093s0,.044-.008.067l-.012.1a.582.582,0,0,1-.008.058c-.006.05-.014.1-.022.151,0,.022-.008.044-.01.067s-.01.058-.014.089-.008.052-.014.077-.008.052-.014.077-.01.054-.016.081-.01.048-.014.073l-.018.083c0,.022-.01.046-.014.069s-.012.056-.02.085-.01.042-.016.065-.014.058-.022.089-.01.038-.014.056l-.024.1-.006.022c-.034.125-.071.25-.109.373l-.012.036c-.012.034-.022.069-.034.1,0,.014-.01.028-.014.042l-.036.1c0,.014-.01.028-.014.042-.012.034-.024.069-.038.1,0,.012-.01.024-.014.038-.014.036-.026.071-.04.107a.14.14,0,0,0-.01.026c-.056.143-.117.286-.181.427-.032.071-.065.143-.1.212l-.006.014c-.018.038-.038.077-.056.113l-.012.022-.056.111a.221.221,0,0,1-.012.022l-.06.111c0,.006-.006.012-.01.018-.022.038-.042.079-.065.117h0l-4.323-.018h0c.03-.036.058-.073.089-.111l.006-.006c.056-.075.109-.151.157-.228l.006-.01c.048-.077.093-.155.135-.236l.006-.012A2.624,2.624,0,0,0,16.569,14a.139.139,0,0,1,.006-.016c.016-.04.032-.081.046-.121v0l.042-.123.006-.022c.012-.04.024-.081.034-.121v0c.01-.04.02-.083.03-.125,0-.008,0-.016.006-.026l.024-.121v0c.008-.042.014-.083.02-.125,0-.01,0-.02,0-.028.006-.04.01-.081.014-.123v0c0-.042.006-.083.008-.125a.153.153,0,0,1,0-.03c0-.042,0-.085,0-.127h0c.006-1.585-.99-2.908-3.206-3.41l-1.6-.377c-.827-.177-1.212-.639-1.21-1.184,0-.722.621-1.371,1.746-1.367h0a1.894,1.894,0,0,1,2,1.645l2.166-.6a3.731,3.731,0,0,0-3.138-2.968l.008-1.936-1.8-.008L11.78,4.427A3.674,3.674,0,0,0,8.438,7.952c-.006,1.69,1.168,2.892,3.065,3.321l1.075.238.542.121c.083.018.161.038.236.063l.073.024c.042.014.083.028.123.044l.058.024a1.18,1.18,0,0,1,.825,1.1c0,.774-.674,1.317-1.817,1.313h0a2.265,2.265,0,0,1-2.456-2.139l-2.184.52v0c0,.026.006.052.01.081,0,.008,0,.018,0,.026s.006.038.008.058,0,.018,0,.028.006.04.01.063,0,.014,0,.022c0,.028.01.054.016.083a.086.086,0,0,1,0,.022c0,.02.008.04.014.06a.168.168,0,0,0,.008.03c0,.018.008.036.014.056a.168.168,0,0,0,.008.03.72.72,0,0,0,.02.071c0,.006,0,.012.006.02.008.024.014.048.022.075,0,.01.006.02.01.032a.521.521,0,0,1,.016.052l.012.034.018.054a.178.178,0,0,1,.01.03l.03.079c0,.01.008.02.012.032s.014.034.02.05.01.024.016.036.014.03.02.046.01.024.016.036l.024.052.024.05c.008.018.018.036.026.054l.02.038c.008.014.014.028.022.042l.022.04.024.042c.008.012.014.026.022.038l.042.073.024.038a.457.457,0,0,0,.026.04c.008.014.018.028.026.04l.026.038c.01.014.018.028.028.04a.465.465,0,0,0,.028.038l.048.067.03.04.03.04.028.036c.01.014.022.026.032.04l.03.036.032.038c.016.02.034.038.052.058l.006.006h0L4.4,14.8h0c-.022-.038-.042-.079-.065-.117,0-.006-.006-.012-.01-.018-.02-.036-.04-.075-.058-.111a.22.22,0,0,0-.012-.022l-.056-.111L4.182,14.4c-.018-.038-.038-.077-.056-.115l-.006-.014c-.036-.075-.069-.149-.1-.224-.06-.137-.119-.276-.173-.417,0-.008-.006-.018-.01-.026-.014-.036-.026-.071-.04-.107,0-.012-.01-.024-.014-.038l-.036-.1c0-.014-.01-.028-.014-.042-.012-.034-.024-.069-.034-.1,0-.014-.01-.028-.014-.042-.012-.034-.022-.069-.032-.1l-.012-.036c-.038-.123-.073-.248-.107-.373l-.006-.02-.024-.1c0-.018-.01-.038-.014-.056s-.014-.058-.02-.089-.01-.042-.014-.065l-.018-.085c0-.022-.01-.046-.014-.069s-.012-.054-.016-.083-.01-.048-.014-.073-.01-.054-.014-.081-.008-.052-.014-.079l-.012-.077c0-.03-.008-.058-.014-.089s-.006-.044-.01-.067c-.008-.05-.014-.1-.02-.151,0-.02,0-.04-.006-.058l-.012-.1-.006-.067c0-.03-.006-.063-.008-.093L3.264,11.1c0-.03,0-.06-.008-.093s0-.046,0-.069l-.006-.093c0-.022,0-.044,0-.067s0-.065,0-.1,0-.042,0-.065,0-.071,0-.107a.491.491,0,0,0,0-.054c0-.054,0-.107,0-.161,0-.153,0-.307.012-.458s.02-.3.034-.454.034-.3.056-.45.048-.3.079-.444.063-.292.1-.438c.054-.218.119-.432.19-.643.046-.141.1-.28.151-.419a9.382,9.382,0,0,1,.468-1.012A9.207,9.207,0,0,1,5.942,3.812,9.176,9.176,0,0,1,21.58,10.364.81.81,0,0,1,21.586,10.521Z" transform="translate(0.001 0.005)"/>
</svg>
